<svg width="25" height="17" viewBox="0 0 25 17" fill="none" xmlns="http://www.w3.org/2000/svg">
<path d="M23.8569 2.77476C23.5842 1.74829 22.781 0.939865 21.7612 0.665516C19.9127 0.166992 12.5003 0.166992 12.5003 0.166992C12.5003 0.166992 5.08798 0.166992 3.23941 0.665516C2.21957 0.939909 1.41636 1.74829 1.14375 2.77476C0.648438 4.63531 0.648438 8.51717 0.648438 8.51717C0.648438 8.51717 0.648438 12.399 1.14375 14.2596C1.41636 15.286 2.21957 16.0608 3.23941 16.3351C5.08798 16.8337 12.5003 16.8337 12.5003 16.8337C12.5003 16.8337 19.9126 16.8337 21.7612 16.3351C22.781 16.0608 23.5842 15.286 23.8569 14.2596C24.3522 12.399 24.3522 8.51717 24.3522 8.51717C24.3522 8.51717 24.3522 4.63531 23.8569 2.77476ZM10.076 12.0416V4.99273L16.2713 8.51725L10.076 12.0416Z" fill="white"/>
</svg>
